<?xml version="1.0" encoding="UTF-8" standalone="no"?>
<!DOCTYPE svg PUBLIC "-//W3C//DTD SVG 1.1//EN"
 "http://www.w3.org/Graphics/SVG/1.1/DTD/svg11.dtd">
<!-- Generated by graphviz version 14.1.5 (20260411.2331)
 -->
<!-- Title: HeartbeatAck Pages: 1 -->
<svg width="1182pt" height="283pt"
 viewBox="0.00 0.00 1182.00 283.00" xmlns="http://www.w3.org/2000/svg" xmlns:xlink="http://www.w3.org/1999/xlink">
<g id="graph0" class="graph" transform="scale(1 1) rotate(0) translate(25.2 264.84)">
<title>HeartbeatAck</title>
<!-- Client -->
<g id="node1" class="node">
<title>Client</title>
<path fill="#3b82f6" stroke="#2563eb" stroke-width="1.4" d="M52.68,-103.92C52.68,-103.92 12,-103.92 12,-103.92 6,-103.92 0,-97.92 0,-91.92 0,-91.92 0,-79.92 0,-79.92 0,-73.92 6,-67.92 12,-67.92 12,-67.92 52.68,-67.92 52.68,-67.92 58.68,-67.92 64.68,-73.92 64.68,-79.92 64.68,-79.92 64.68,-91.92 64.68,-91.92 64.68,-97.92 58.68,-103.92 52.68,-103.92"/>
<text xml:space="preserve" text-anchor="start" x="15.84" y="-81.89" font-family="Helvetica,sans-Serif" font-weight="bold" font-size="12.00" fill="white">Client</text>
</g>
<!-- idle_30s -->
<g id="node3" class="node">
<title>idle_30s</title>
<path fill="white" stroke="#cbd5e1" d="M162.11,-217.92C162.11,-217.92 117.68,-217.92 117.68,-217.92 111.68,-217.92 105.68,-211.92 105.68,-205.92 105.68,-205.92 105.68,-193.92 105.68,-193.92 105.68,-187.92 111.68,-181.92 117.68,-181.92 117.68,-181.92 162.11,-181.92 162.11,-181.92 168.11,-181.92 174.11,-187.92 174.11,-193.92 174.11,-193.92 174.11,-205.92 174.11,-205.92 174.11,-211.92 168.11,-217.92 162.11,-217.92"/>
<text xml:space="preserve" text-anchor="middle" x="139.89" y="-195.47" font-family="Helvetica,sans-Serif" font-size="11.00" fill="#1f2937">30s idle</text>
</g>
<!-- Client&#45;&gt;idle_30s -->
<g id="edge1" class="edge">
<title>Client&#45;&gt;idle_30s</title>
<path fill="none" stroke="#64748b" stroke-width="1.2" d="M50.53,-104.49C68.35,-123.73 96.3,-153.91 115.98,-175.17"/>
<polygon fill="#64748b" stroke="#64748b" stroke-width="1.2" points="121.06,-180.66 113.49,-177.45 119.44,-179.05 115.9,-175.23 115.97,-175.16 116.04,-175.09 119.58,-178.92 118.44,-172.87 121.06,-180.66"/>
</g>
<!-- ack -->
<g id="node6" class="node">
<title>ack</title>
<path fill="white" stroke="#cbd5e1" d="M346.54,-143.84C346.54,-143.84 206.11,-143.84 206.11,-143.84 200.11,-143.84 194.11,-137.84 194.11,-131.84 194.11,-131.84 194.11,-116 194.11,-116 194.11,-110 200.11,-104 206.11,-104 206.11,-104 346.54,-104 346.54,-104 352.54,-104 358.54,-110 358.54,-116 358.54,-116 358.54,-131.84 358.54,-131.84 358.54,-137.84 352.54,-143.84 346.54,-143.84"/>
<text xml:space="preserve" text-anchor="start" x="248.57" y="-126.92" font-family="Helvetica,sans-Serif" font-size="11.00" fill="#1f2937">session.ack</text>
<text xml:space="preserve" text-anchor="start" x="209.95" y="-114.92" font-family="Helvetica,sans-Serif" font-size="11.00" fill="#1f2937">{last_processed_seq: 1827}</text>
</g>
<!-- Client&#45;&gt;ack -->
<g id="edge6" class="edge">
<title>Client&#45;&gt;ack</title>
<path fill="none" stroke="#cbd5e1" d="M65.22,-90.93C95.66,-95.71 142.98,-103.14 185.01,-109.74"/>
<polygon fill="#cbd5e1" stroke="#cbd5e1" points="192.41,-110.9 184.48,-113.07 189.91,-110.51 185,-109.74 185,-109.74 185,-109.74 189.91,-110.51 185.53,-106.4 192.41,-110.9"/>
</g>
<!-- Runtime -->
<g id="node2" class="node">
<title>Runtime</title>
<path fill="#f59e0b" stroke="#d97706" stroke-width="1.4" d="M709.9,-107.92C709.9,-107.92 654.22,-107.92 654.22,-107.92 648.22,-107.92 642.22,-101.92 642.22,-95.92 642.22,-95.92 642.22,-83.92 642.22,-83.92 642.22,-77.92 648.22,-71.92 654.22,-71.92 654.22,-71.92 709.9,-71.92 709.9,-71.92 715.9,-71.92 721.9,-77.92 721.9,-83.92 721.9,-83.92 721.9,-95.92 721.9,-95.92 721.9,-101.92 715.9,-107.92 709.9,-107.92"/>
<text xml:space="preserve" text-anchor="start" x="658.06" y="-85.89" font-family="Helvetica,sans-Serif" font-weight="bold" font-size="12.00" fill="white">Runtime</text>
</g>
<!-- pong -->
<g id="node5" class="node">
<title>pong</title>
<path fill="white" stroke="#cbd5e1" d="M522.72,-80.84C522.72,-80.84 390.54,-80.84 390.54,-80.84 384.54,-80.84 378.54,-74.84 378.54,-68.84 378.54,-68.84 378.54,-53 378.54,-53 378.54,-47 384.54,-41 390.54,-41 390.54,-41 522.72,-41 522.72,-41 528.72,-41 534.72,-47 534.72,-53 534.72,-53 534.72,-68.84 534.72,-68.84 534.72,-74.84 528.72,-80.84 522.72,-80.84"/>
<text xml:space="preserve" text-anchor="start" x="425.13" y="-63.92" font-family="Helvetica,sans-Serif" font-size="11.00" fill="#1f2937">session.pong</text>
<text xml:space="preserve" text-anchor="start" x="394.38" y="-51.92" font-family="Helvetica,sans-Serif" font-size="11.00" fill="#1f2937">{ping_nonce, received_at}</text>
</g>
<!-- Runtime&#45;&gt;pong -->
<g id="edge4" class="edge">
<title>Runtime&#45;&gt;pong</title>
<path fill="none" stroke="#64748b" stroke-width="1.2" d="M641.57,-82.11C635.11,-80.96 628.49,-79.85 622.22,-78.92 596.78,-75.16 569.03,-71.83 543.68,-69.08"/>
<polygon fill="#64748b" stroke="#64748b" stroke-width="1.2" points="536.27,-68.29 544.09,-65.73 538.56,-68.44 543.74,-68.99 543.73,-69.09 543.72,-69.19 538.54,-68.64 543.37,-72.45 536.27,-68.29"/>
</g>
<!-- lag_detected -->
<g id="node7" class="node">
<title>lag_detected</title>
<path fill="white" stroke="#cbd5e1" d="M904.08,-77.92C904.08,-77.92 774.9,-77.92 774.9,-77.92 768.9,-77.92 762.9,-71.92 762.9,-65.92 762.9,-65.92 762.9,-53.92 762.9,-53.92 762.9,-47.92 768.9,-41.92 774.9,-41.92 774.9,-41.92 904.08,-41.92 904.08,-41.92 910.08,-41.92 916.08,-47.92 916.08,-53.92 916.08,-53.92 916.08,-65.92 916.08,-65.92 916.08,-71.92 910.08,-77.92 904.08,-77.92"/>
<text xml:space="preserve" text-anchor="middle" x="839.49" y="-55.47" font-family="Helvetica,sans-Serif" font-size="11.00" fill="#1f2937">consumer lag &gt; threshold</text>
</g>
<!-- Runtime&#45;&gt;lag_detected -->
<g id="edge8" class="edge">
<title>Runtime&#45;&gt;lag_detected</title>
<path fill="none" stroke="#cbd5e1" d="M722.28,-82.35C732.1,-80.45 743.01,-78.35 754.11,-76.21"/>
<polygon fill="#cbd5e1" stroke="#cbd5e1" points="761.42,-74.8 754.7,-79.53 758.94,-75.28 754.06,-76.22 754.06,-76.22 754.06,-76.22 758.94,-75.28 753.42,-72.9 761.42,-74.8"/>
</g>
<!-- ping -->
<g id="node4" class="node">
<title>ping</title>
<path fill="white" stroke="#cbd5e1" d="M499.47,-246.84C499.47,-246.84 413.79,-246.84 413.79,-246.84 407.79,-246.84 401.79,-240.84 401.79,-234.84 401.79,-234.84 401.79,-219 401.79,-219 401.79,-213 407.79,-207 413.79,-207 413.79,-207 499.47,-207 499.47,-207 505.47,-207 511.47,-213 511.47,-219 511.47,-219 511.47,-234.84 511.47,-234.84 511.47,-240.84 505.47,-246.84 499.47,-246.84"/>
<text xml:space="preserve" text-anchor="start" x="427" y="-229.92" font-family="Helvetica,sans-Serif" font-size="11.00" fill="#1f2937">session.ping</text>
<text xml:space="preserve" text-anchor="start" x="417.63" y="-217.92" font-family="Helvetica,sans-Serif" font-size="11.00" fill="#1f2937">{nonce, sent_at}</text>
</g>
<!-- idle_30s&#45;&gt;ping -->
<g id="edge2" class="edge">
<title>idle_30s&#45;&gt;ping</title>
<path fill="none" stroke="#64748b" stroke-width="1.2" d="M174.58,-202.81C226.56,-207.27 327.17,-215.9 392.85,-221.53"/>
<polygon fill="#64748b" stroke="#64748b" stroke-width="1.2" points="400.02,-222.15 392.26,-224.87 397.73,-222.05 392.54,-221.61 392.55,-221.51 392.55,-221.41 397.75,-221.85 392.83,-218.15 400.02,-222.15"/>
</g>
<!-- ping&#45;&gt;Runtime -->
<g id="edge3" class="edge">
<title>ping&#45;&gt;Runtime</title>
<path fill="none" stroke="#64748b" stroke-width="1.2" d="M511.75,-225.12C546.22,-221.56 590.25,-212.27 622.22,-188.92 646.85,-170.94 663.01,-139.24 672.06,-116.56"/>
<polygon fill="#64748b" stroke="#64748b" stroke-width="1.2" points="674.66,-109.72 675.15,-117.93 673.94,-111.89 672.09,-116.76 672,-116.73 671.9,-116.69 673.76,-111.82 668.84,-115.53 674.66,-109.72"/>
</g>
<!-- pong&#45;&gt;Client -->
<g id="edge5" class="edge">
<title>pong&#45;&gt;Client</title>
<path fill="none" stroke="#64748b" stroke-width="1.2" d="M378.39,-65.49C288.53,-70.81 143.56,-79.39 73.63,-83.53"/>
<polygon fill="#64748b" stroke="#64748b" stroke-width="1.2" points="66.54,-83.95 73.83,-80.14 68.82,-83.72 74.02,-83.41 74.03,-83.51 74.03,-83.61 68.83,-83.92 74.23,-86.88 66.54,-83.95"/>
</g>
<!-- pong&#45;&gt;Runtime -->
<g id="edge11" class="edge">
<title>pong&#45;&gt;Runtime</title>
<path fill="none" stroke="#f472b6" stroke-width="1.1" stroke-dasharray="5,2" d="M535.18,-75.06C541.78,-76.09 548.36,-77.06 554.72,-77.92 580.47,-81.39 609.31,-84.21 632.92,-86.24"/>
<polygon fill="#f472b6" stroke="#f472b6" stroke-width="1.1" points="640.37,-86.87 632.61,-89.6 637.96,-86.72 632.89,-86.29 632.89,-86.24 632.9,-86.19 637.97,-86.62 633.18,-82.88 640.37,-86.87"/>
<text xml:space="preserve" text-anchor="start" x="554.72" y="-87.35" font-family="Helvetica,sans-Serif" font-size="9.00" fill="#db2777">not in event_seq</text>
</g>
<!-- ack&#45;&gt;Runtime -->
<g id="edge7" class="edge">
<title>ack&#45;&gt;Runtime</title>
<path fill="none" stroke="#cbd5e1" d="M329.92,-144.33C399.92,-168.11 526.05,-199.02 622.22,-155.92 640.76,-147.61 655.86,-130.25 666.11,-115.42"/>
<polygon fill="#cbd5e1" stroke="#cbd5e1" points="670.08,-109.42 668.77,-117.53 668.69,-111.53 665.95,-115.67 665.95,-115.67 665.95,-115.67 668.69,-111.53 663.13,-113.81 670.08,-109.42"/>
</g>
<!-- ack&#45;&gt;Runtime -->
<g id="edge12" class="edge">
<title>ack&#45;&gt;Runtime</title>
<path fill="none" stroke="#f472b6" stroke-width="1.1" stroke-dasharray="5,2" d="M358.72,-120.53C428.75,-117.07 532.38,-110.65 622.22,-99.92 625.75,-99.5 629.39,-99.01 633.05,-98.48"/>
<polygon fill="#f472b6" stroke="#f472b6" stroke-width="1.1" points="640.25,-97.38 633.34,-101.85 637.87,-97.8 632.84,-98.56 632.84,-98.51 632.83,-98.46 637.86,-97.7 632.33,-95.18 640.25,-97.38"/>
<text xml:space="preserve" text-anchor="start" x="422.88" y="-121.62" font-family="Helvetica,sans-Serif" font-size="9.00" fill="#db2777">not in event_seq</text>
</g>
<!-- back_pressure -->
<g id="node8" class="node">
<title>back_pressure</title>
<path fill="white" stroke="#cbd5e1" d="M1120.01,-39.84C1120.01,-39.84 969.08,-39.84 969.08,-39.84 963.08,-39.84 957.08,-33.84 957.08,-27.84 957.08,-27.84 957.08,-12 957.08,-12 957.08,-6 963.08,0 969.08,0 969.08,0 1120.01,0 1120.01,0 1126.01,0 1132.01,-6 1132.01,-12 1132.01,-12 1132.01,-27.84 1132.01,-27.84 1132.01,-33.84 1126.01,-39.84 1120.01,-39.84"/>
<text xml:space="preserve" text-anchor="start" x="992.42" y="-22.92" font-family="Helvetica,sans-Serif" font-size="11.00" fill="#1f2937">job.event{kind: status,</text>
<text xml:space="preserve" text-anchor="start" x="972.92" y="-10.92" font-family="Helvetica,sans-Serif" font-size="11.00" fill="#1f2937">body.phase: &quot;back_pressure&quot;}</text>
</g>
<!-- lag_detected&#45;&gt;back_pressure -->
<g id="edge9" class="edge">
<title>lag_detected&#45;&gt;back_pressure</title>
<path fill="none" stroke="#cbd5e1" d="M916.39,-44.97C926.79,-42.92 937.57,-40.8 948.26,-38.69"/>
<polygon fill="#cbd5e1" stroke="#cbd5e1" points="955.61,-37.24 948.91,-42 953.13,-37.73 948.25,-38.69 948.25,-38.69 948.25,-38.69 953.13,-37.73 947.6,-35.38 955.61,-37.24"/>
</g>
<!-- back_pressure&#45;&gt;Client -->
<g id="edge10" class="edge">
<title>back_pressure&#45;&gt;Client</title>
<path fill="none" stroke="#cbd5e1" d="M956.68,-11.29C920.76,-8.41 878.65,-5.92 840.49,-5.92 138.89,-5.92 138.89,-5.92 138.89,-5.92 102.06,-5.92 69.99,-37.24 51.15,-60.69"/>
<polygon fill="#cbd5e1" stroke="#cbd5e1" points="46.71,-66.4 48.65,-58.41 48.27,-64.4 51.31,-60.48 51.31,-60.48 51.31,-60.48 48.27,-64.4 53.98,-62.55 46.71,-66.4"/>
</g>
</g>
</svg>
